# xmcd
#
# Track frame offsets:
# 150
# 16808
# 33684
# 53302
# 73023
# 87520
# 110613
# 132644
# 151971
# 166731
# 184813
# 199635
# 215263
# 231880
# 248428
# 264546
# 289419
#
# Disc length: 4132 seconds
#
#
# Revision: 0
# Processed by: cddbd v1.5.2PL0 Copyright (c) Steve Scherf et al.
# Submitted via: FreeRIP 2.951 
#
DISCID=ec102211
DTITLE=Gaither Vocal Band - Better Day (Live)
DYEAR=2010
DGENRE=Gospel
TTITLE0=Love Like Im Leaving
TTITLE1=Where Could I Go
TTITLE2=Better Day
TTITLE3=Go Ask
TTITLE4=Low Down The Chariot
TTITLE5=Alpha and Omega
TTITLE6=At The Cross
TTITLE7=The Love of God
TTITLE8=When He Blest My Soul
TTITLE9=Journey To The Sky
TTITLE10=Nessun Dorma
TTITLE11=The Three Bells (Isaacs)
TTITLE12=I Will Praise Him (Isaacs)
TTITLE13=Somebody Like Me (Jason Crabb)
TTITLE14=Hide Thou Me
TTITLE15=Daystar (with Jason Crabb)
TTITLE16=Lord Feed Your Children
EXTD=
EXTT0=
EXTT1=
EXTT2=
EXTT3=
EXTT4=
EXTT5=
EXTT6=
EXTT7=
EXTT8=
EXTT9=
EXTT10=
EXTT11=
EXTT12=
EXTT13=
EXTT14=
EXTT15=
EXTT16=
PLAYORDER=
